<?xml version="1.0" encoding="utf-8"?>
<!-- Generator: Adobe Illustrator 19.0.0, SVG Export Plug-In . SVG Version: 6.00 Build 0)  -->
<svg version="1.1" id="Calque_1" xmlns="http://www.w3.org/2000/svg" xmlns:xlink="http://www.w3.org/1999/xlink" x="0px" y="0px"
	 viewBox="0 0 612 792" style="enable-background:new 0 0 612 792;" xml:space="preserve">
<style type="text/css">
	.st0{fill:#FFFFFF;}
</style>
<g>
	<g>
		<path class="st0" d="M611.2,520.9c-202.8,0-405.6,0-608.4,0c0-158.9,0-317.7,0-476.5c202.8,0,405.6,0,608.4,0
			C611.2,203.3,611.2,362.1,611.2,520.9z M230.5,102.9c-17,1.4-32.8,6.4-46.2,17.1c-29,23.2-41.3,54.5-40.7,90.6
			c0.3,16.3,4.1,32.6,7.2,48.8c12.9,68.2,47.9,122.8,102.8,164.6c32.9,25,69.6,42.6,111.1,47.5c33.9,4,62.9-7.4,85.8-32.6
			c8-8.8,13.8-19.7,20.6-29.7c5.9,3.3,13,7.2,20,11c4.2,2.3,6.9,0.8,8.7-3.5c3-7.2,3.8-14.6,3.1-22.3c-0.8-9.3-3.2-11.1-12.5-8.9
			c-5.3,1.2-10.5,2.8-15.4,4.1c-1.1-10.9-1.1-21.9-3.4-32.3c-6-27.4-23.7-45.2-49.3-55.3c-13.1-5.2-26.5-9.3-39.6-14.3
			c-16.4-6.3-30.6-15.9-41.6-29.9c-13.7-17.3-17.6-37.9-19.8-59.1c-1.5-14.1-3.7-28.1-9.4-41.1c-11.9-27.6-31.1-47-61.6-53.3
			c-1.3-0.3-2.6-0.7-3.5-1c4.8-8.5,9.4-16.5,13.9-24.5c-8.9-8.9-19.5-9.8-30.5-9.2c-6.9,0.4-8.8,2.8-7,9.4
			C225.4,86.9,228,94.7,230.5,102.9z"/>
		<path d="M230.5,102.9c-2.5-8.2-5.2-16-7.3-23.9c-1.8-6.6,0.1-9,7-9.4c11-0.6,21.6,0.3,30.5,9.2c-4.5,8-9.1,16-13.9,24.5
			c0.9,0.3,2.2,0.7,3.5,1c30.4,6.3,49.6,25.7,61.6,53.3c5.7,13.1,7.9,27,9.4,41.1c2.2,21.1,6.1,41.7,19.8,59.1
			c11,14,25.2,23.6,41.6,29.9c13.1,5,26.6,9.2,39.6,14.3c25.6,10.1,43.3,27.9,49.3,55.3c2.3,10.5,2.3,21.4,3.4,32.3
			c4.9-1.3,10.1-2.8,15.4-4.1c9.2-2.2,11.6-0.4,12.5,8.9c0.7,7.7-0.1,15.1-3.1,22.3c-1.8,4.2-4.4,5.8-8.7,3.5
			c-7.1-3.9-14.1-7.8-20-11c-6.8,10-12.6,20.8-20.6,29.7c-22.9,25.3-51.9,36.6-85.8,32.6c-41.5-4.9-78.2-22.5-111.1-47.5
			c-54.9-41.7-89.9-96.4-102.8-164.6c-3-16.2-6.9-32.5-7.2-48.8c-0.7-36.2,11.7-67.4,40.7-90.6C197.8,109.3,213.6,104.3,230.5,102.9
			z M234.7,115.3c-20.7-1-37.6,7.2-51.6,21.2c-14.4,14.3-22.4,32.2-26.2,52c-2.3,11.8-2.8,23.6-0.9,35.4c1.7,10.4,4.1,20.8,6,31.2
			c4.3,23.5,11.1,46.3,21.6,67.7c10.5,21.2,24,40.5,39.8,58.1c13.5,15,28.6,28.6,45.5,40c22.4,15.1,46.4,26.6,72.3,34.3
			c16.3,4.9,32.5,6.8,49.5,4.1c22.9-3.7,41.5-14.9,55.6-32.8c14.1-17.8,18.8-38.2,15.1-61.1c-3.8-23.3-16.3-39.5-36.7-49.3
			c-13.3-6.4-28-9.9-41.8-15.2c-19.8-7.6-37.7-18.1-51-35.2c-13.6-17.5-19.4-37.8-21.7-59.3c-1.5-14.4-3.2-28.6-8.3-42.2
			C291.1,135.5,266.4,113.5,234.7,115.3z"/>
		<path class="st0" d="M234.7,115.3c31.6-1.9,56.4,20.1,67.2,48.7c5.1,13.6,6.8,27.9,8.3,42.2c2.3,21.4,8.2,41.8,21.7,59.3
			c13.3,17.2,31.2,27.6,51,35.2c13.8,5.3,28.5,8.9,41.8,15.2c20.5,9.8,33,26.1,36.7,49.3c3.7,22.9-1,43.3-15.1,61.1
			c-14.1,17.8-32.7,29.1-55.6,32.8c-16.9,2.7-33.2,0.8-49.5-4.1c-25.9-7.7-49.9-19.3-72.3-34.3c-16.9-11.4-32-24.9-45.5-40
			c-15.8-17.5-29.3-36.9-39.8-58.1C173,301.3,166.3,278.5,162,255c-1.9-10.4-4.3-20.7-6-31.2c-1.9-11.8-1.3-23.6,0.9-35.4
			c3.8-19.8,11.8-37.7,26.2-52C197.1,122.5,214.1,114.3,234.7,115.3z M295.3,292.8c8.4,0,15.7-7.1,15.8-15.4
			c0.1-9.6-7.2-17.6-16.3-17c-9,0.6-16,7-15.8,16.6C279.1,285.1,284.2,292.6,295.3,292.8z M241.1,318.6c0-9.6-5.9-15.7-15.3-15.7
			c-9.8,0-16.1,6-16.1,15.5c0,9.8,6.2,16,16.2,16C235.2,334.4,241.1,328.3,241.1,318.6z M264.8,323.4c-0.1,0.6-0.1,1.1-0.2,1.7
			c3.4,4.5,7.4,5.8,12.3,4.2c5.9-2,9-5.7,8.7-11.2c-0.1-1.7-1.3-3.3-2.1-5c-1,1.6-2.5,3.2-2.8,4.9c-0.8,5.4-5.3,8.1-10.4,6.2
			C268.6,323.6,266.6,323.7,264.8,323.4z M318,289.4c-1.9,0.8-2.7,1.1-3.4,1.5c-2.1,0.9-4.1,2-6.3,2.8c-5.8,2.3-7.4,7.1-2.5,11
			c1.8,1.5,6.7-0.1,9.9-1.2c2.4-0.9,6.1-3.2,6.1-4.9C321.8,295.6,319.5,292.5,318,289.4z M230.7,342.9c2,2.7,3,5,4.8,6.4
			c1,0.8,3.6,1.1,4.7,0.4c2.8-1.7,5.4-3.9,7.7-6.2c1.2-1.2,2.6-4,2-4.7c-1.8-2.4-4.5-4.3-6.9-6.3c-0.1-0.1-0.9,0.4-1.2,0.7
			C238.1,336.4,234.4,339.7,230.7,342.9z"/>
		<path d="M295.3,292.8c-11-0.2-16.2-7.7-16.4-15.7c-0.2-9.5,6.9-16,15.8-16.6c9.1-0.6,16.4,7.4,16.3,17
			C311,285.7,303.7,292.8,295.3,292.8z M299.6,276.9c-1.4-6-5.2-9.8-9.2-9.5c-4.3,0.3-8.3,4.1-8.7,8.2c-0.4,4.2,2.9,8.9,6.9,9.9
			c4,1,8.7-2.1,10.9-7.5c1.5,3.2,3.6,5.2,6.8,2.6c0.9-0.7,1.3-3.6,0.6-4.4C304.8,273.4,302.2,273.9,299.6,276.9z"/>
		<path d="M241.1,318.6c0,9.6-5.9,15.8-15.3,15.7c-9.9,0-16.2-6.2-16.2-16c0-9.5,6.3-15.5,16.1-15.5
			C235.2,302.9,241.1,309,241.1,318.6z M229.4,320.4c2.6,2,4.4,5.8,7.6,2.1c0.8-0.9,0.6-4.3,0-4.6c-2-0.8-4.3-0.7-7.2-1.1
			c-2.6-7.1-4.3-7.1-11.5-6.7c-3.6,0.2-6.9,4.8-6.5,8.8c0.4,4.5,3.3,7.2,7.4,8.3C223.7,328.3,227.4,325.7,229.4,320.4z"/>
		<path d="M264.8,323.4c1.9,0.3,3.9,0.2,5.6,0.8c5.1,1.9,9.6-0.8,10.4-6.2c0.3-1.7,1.8-3.3,2.8-4.9c0.7,1.7,2,3.3,2.1,5
			c0.3,5.5-2.8,9.2-8.7,11.2c-5,1.7-8.9,0.3-12.3-4.2C264.6,324.6,264.7,324,264.8,323.4z"/>
		<path d="M318,289.4c1.4,3.1,3.8,6.1,3.8,9.1c0,1.7-3.7,4.1-6.1,4.9c-3.1,1.1-8,2.7-9.9,1.2c-4.9-3.9-3.3-8.7,2.5-11
			c2.1-0.8,4.2-1.9,6.3-2.8C315.4,290.5,316.1,290.2,318,289.4z M304.9,297.4c0.1,0.4,0.2,0.9,0.3,1.3c2.8,0.2,5.5,0.3,9.6,0.6
			c-3.5,1.7-5.6,2.8-7.7,3.8c0.2,0.4,0.4,0.9,0.6,1.3c4.2-1.7,8.4-3.4,13.8-5.6c-3.8-1-6.2-1.6-8.8-2.2c1.9-1.2,3.7-2.4,5.5-3.5
			c-0.2-0.4-0.5-0.8-0.7-1.2C313.3,293.6,309.1,295.5,304.9,297.4z"/>
		<path d="M230.7,342.9c3.7-3.2,7.4-6.5,11.1-9.7c0.4-0.3,1.1-0.8,1.2-0.7c2.4,2,5,3.9,6.9,6.3c0.5,0.7-0.9,3.5-2,4.7
			c-2.3,2.4-4.9,4.5-7.7,6.2c-1.1,0.7-3.6,0.4-4.7-0.4C233.8,347.8,232.7,345.6,230.7,342.9z M248.4,340.6c-0.3-0.4-0.5-0.8-0.8-1.1
			c-1.6,1-3.3,2-5.7,3.6c1.2-3.3,2-5.6,2.8-8c-0.3-0.1-0.7-0.3-1-0.4c-3.5,2.8-7,5.5-10.5,8.3c0.2,0.4,0.4,0.8,0.6,1.2
			c2-1.1,4-2.2,6.5-3.5c-1.3,2.8-2.3,5.1-3.3,7.4c0.3,0.3,0.7,0.6,1,0.9C241.5,346.2,245,343.4,248.4,340.6z"/>
		<path class="st0" d="M299.6,276.9c2.6-3,5.2-3.5,7.3-0.7c0.7,0.9,0.3,3.7-0.6,4.4c-3.2,2.6-5.3,0.6-6.8-2.6
			c-2.2,5.4-6.9,8.6-10.9,7.5c-4-1-7.3-5.8-6.9-9.9c0.4-4.2,4.3-7.9,8.7-8.2C294.3,267.2,298.2,270.9,299.6,276.9z"/>
		<path class="st0" d="M229.4,320.4c-2,5.3-5.7,8-10.2,6.8c-4.2-1-7.1-3.8-7.4-8.3c-0.3-4,2.9-8.5,6.5-8.8c7.2-0.4,8.9-0.5,11.5,6.7
			c2.9,0.3,5.3,0.2,7.2,1.1c0.6,0.3,0.8,3.7,0,4.6C233.9,326.1,232,322.4,229.4,320.4z"/>
		<path class="st0" d="M304.9,297.4c4.2-1.9,8.4-3.7,12.6-5.6c0.2,0.4,0.5,0.8,0.7,1.2c-1.8,1.1-3.6,2.3-5.5,3.5
			c2.5,0.6,4.9,1.3,8.8,2.2c-5.4,2.2-9.6,3.9-13.8,5.6c-0.2-0.4-0.4-0.9-0.6-1.3c2.1-1,4.2-2.1,7.7-3.8c-4.1-0.3-6.8-0.4-9.6-0.6
			C305.1,298.2,305,297.8,304.9,297.4z"/>
		<path class="st0" d="M248.4,340.6c-3.4,2.8-6.9,5.6-10.3,8.4c-0.3-0.3-0.7-0.6-1-0.9c1-2.3,2-4.6,3.3-7.4
			c-2.5,1.4-4.5,2.5-6.5,3.5c-0.2-0.4-0.4-0.8-0.6-1.2c3.5-2.8,7-5.5,10.5-8.3c0.3,0.1,0.7,0.3,1,0.4c-0.8,2.3-1.6,4.7-2.8,8
			c2.5-1.5,4.1-2.5,5.7-3.6C247.9,339.8,248.1,340.2,248.4,340.6z"/>
	</g>
</g>
</svg>
